<svg width="20" height="14" viewBox="0 0 20 14" fill="none" xmlns="http://www.w3.org/2000/svg">
<path fill-rule="evenodd" clip-rule="evenodd" d="M1.0457 7C1.05672 7.02308 1.06886 7.04821 1.08215 7.07529C1.16492 7.24398 1.29176 7.48787 1.46515 7.78185C1.81249 8.37077 2.34353 9.15542 3.07701 9.93844C4.54327 11.5037 6.79314 13.0392 10 13.0392C13.2069 13.0392 15.4568 11.5037 16.9231 9.93844C17.6566 9.15542 18.1876 8.37077 18.5349 7.78185C18.7083 7.48786 18.8352 7.24398 18.9179 7.07529C18.9312 7.04821 18.9434 7.02307 18.9544 7C18.9434 6.97692 18.9312 6.95179 18.9179 6.92471C18.8352 6.75602 18.7083 6.51213 18.5349 6.21815C18.1876 5.62923 17.6566 4.84458 16.9231 4.06156C15.4568 2.49627 13.2069 0.960784 10.0001 0.960784C6.79318 0.960784 4.5433 2.49627 3.07703 4.06156C2.34354 4.84458 1.8125 5.62923 1.46515 6.21815C1.29176 6.51214 1.16492 6.75602 1.08215 6.92471C1.06886 6.95179 1.05672 6.97692 1.0457 7ZM19.5001 7C19.9643 6.82159 19.9642 6.82137 19.9641 6.82114L19.9632 6.81889L19.9611 6.81382L19.9537 6.79674C19.9475 6.7823 19.9385 6.76185 19.9267 6.73577C19.9032 6.68364 19.8686 6.60898 19.8225 6.51501C19.7303 6.32716 19.5921 6.0617 19.405 5.74447C19.0313 5.11097 18.4597 4.26571 17.6664 3.41883C16.0791 1.72432 13.5789 0 10.0001 0C6.4212 0 3.92105 1.72432 2.33373 3.41883C1.54042 4.26571 0.968771 5.11097 0.595129 5.74447C0.408027 6.0617 0.269795 6.32716 0.177622 6.51501C0.131517 6.60897 0.0968791 6.68363 0.0733626 6.73577C0.0616028 6.76185 0.0526188 6.7823 0.0463677 6.79673L0.0390333 6.81382L0.036892 6.81889L0.036201 6.82053C0.0361019 6.82077 0.0357623 6.82159 0.500002 7L0.0357623 6.82159C-0.0119204 6.93612 -0.0119208 7.06388 0.0357614 7.17841L0.500002 7C0.0357613 7.17841 0.0356622 7.17817 0.0357614 7.17841L0.0362 7.17946L0.0368911 7.18111L0.0390323 7.18618L0.0463666 7.20326C0.0526176 7.2177 0.0616015 7.23815 0.0733612 7.26422C0.0968772 7.31636 0.131515 7.39102 0.177619 7.48499C0.269791 7.67284 0.408021 7.9383 0.595122 8.25553C0.968759 8.88903 1.5404 9.73429 2.33371 10.5812C3.92102 12.2757 6.42116 14 10 14C13.5789 14 16.079 12.2757 17.6664 10.5812C18.4597 9.73429 19.0313 8.88903 19.405 8.25553C19.5921 7.9383 19.7303 7.67284 19.8225 7.48499C19.8686 7.39103 19.9032 7.31637 19.9267 7.26423C19.9385 7.23815 19.9475 7.2177 19.9537 7.20327L19.9611 7.18618L19.9632 7.18111L19.9639 7.17946C19.964 7.17923 19.9643 7.17841 19.5001 7ZM19.5001 7L19.9643 7.17841C20.012 7.06388 20.0118 6.93567 19.9641 6.82114L19.5001 7ZM10 4.87255C8.77712 4.87255 7.78575 5.82504 7.78575 7C7.78575 8.17496 8.77712 9.12745 10 9.12745C11.223 9.12745 12.2143 8.17496 12.2143 7C12.2143 5.82504 11.223 4.87255 10 4.87255ZM6.78575 7C6.78575 5.29441 8.22484 3.91176 10 3.91176C11.7753 3.91176 13.2143 5.29441 13.2143 7C13.2143 8.70559 11.7753 10.0882 10 10.0882C8.22484 10.0882 6.78575 8.70559 6.78575 7Z" fill="#BCBCBE"/>
</svg>
