<svg width="28" height="27" viewBox="0 0 28 27" fill="none" xmlns="http://www.w3.org/2000/svg">
<path fill-rule="evenodd" clip-rule="evenodd" d="M14 0C14.3822 0 14.731 0.217856 14.8987 0.561321L18.6847 8.31703L27.1453 9.55917C27.5207 9.61428 27.8325 9.87706 27.9505 10.2376C28.0684 10.5982 27.9722 10.9945 27.7019 11.2608L21.5731 17.3007L23.0208 25.8327C23.0845 26.2085 22.9292 26.5878 22.6201 26.8109C22.311 27.0339 21.9021 27.0619 21.5655 26.883L14 22.8616L6.43454 26.883C6.09799 27.0619 5.68901 27.0339 5.37996 26.8109C5.0709 26.5878 4.91551 26.2085 4.97927 25.8327L6.42695 17.3007L0.298111 11.2608C0.0278862 10.9945 -0.068368 10.5982 0.0495909 10.2376C0.16755 9.87706 0.479404 9.61428 0.854771 9.55917L9.31539 8.31703L13.1014 0.561321C13.269 0.217856 13.6178 0 14 0ZM14 3.27957L10.8812 9.66848C10.7364 9.96516 10.4545 10.1712 10.1279 10.2192L3.1326 11.2462L8.20195 16.2419C8.43455 16.4712 8.54057 16.7995 8.48594 17.1215L7.29122 24.1627L13.5307 20.8461C13.8241 20.6901 14.1759 20.6901 14.4694 20.8461L20.7088 24.1627L19.5141 17.1215C19.4595 16.7995 19.5655 16.4712 19.7981 16.2419L24.8675 11.2462L17.8722 10.2192C17.5456 10.1712 17.2636 9.96516 17.1188 9.66848L14 3.27957Z" fill="#8E8E91"/>
</svg>
