<svg width="28" height="28" viewBox="0 0 28 28" fill="none" xmlns="http://www.w3.org/2000/svg">
<path fill-rule="evenodd" clip-rule="evenodd" d="M0 14C0 6.26801 6.26801 0 14 0C21.732 0 28 6.26801 28 14C28 21.732 21.732 28 14 28C6.26801 28 0 21.732 0 14ZM14 2C7.37258 2 2 7.37258 2 14C2 17.1402 3.20619 19.9987 5.18054 22.1375C5.89074 19.7172 8.12822 17.9505 10.7782 17.9505H17.222C19.8719 17.9505 22.1094 19.7171 22.8196 22.1373C24.7939 19.9986 26 17.1401 26 14C26 7.37258 20.6274 2 14 2ZM21.0542 23.7087C21.0149 21.6261 19.3144 19.9505 17.222 19.9505H10.7782C8.68576 19.9505 6.98529 21.6262 6.94603 23.7089C8.92601 25.1499 11.3637 26 14 26C16.6364 26 19.0742 25.1498 21.0542 23.7087ZM14.0001 7.22383C11.8824 7.22383 10.1672 8.93884 10.1672 11.0536C10.1672 13.1683 11.8824 14.8833 14.0001 14.8833C16.1178 14.8833 17.833 13.1683 17.833 11.0536C17.833 8.93884 16.1178 7.22383 14.0001 7.22383ZM8.16725 11.0536C8.16725 7.83304 10.7791 5.22383 14.0001 5.22383C17.2211 5.22383 19.833 7.83304 19.833 11.0536C19.833 14.2741 17.2211 16.8833 14.0001 16.8833C10.7791 16.8833 8.16725 14.2741 8.16725 11.0536Z" fill="#8E8E91"/>
</svg>
